<svg width="1024" height="1024" viewBox="0 0 1024 1024" fill="none" xmlns="http://www.w3.org/2000/svg">
<rect width="1024" height="1024" fill="black" fill-opacity="0"/>
<rect width="486.623" height="468.429" fill="black" fill-opacity="0" transform="translate(521.623 468.429) rotate(-180)"/>
<path d="M85.6508 295.537L254.741 464.68C253.282 439.935 254.741 416.33 262.998 387.173L128.541 252.534C84.7172 208.77 84.7755 137.428 128.511 93.6067C172.802 49.2883 244.022 50.194 287.291 93.6067L428.244 234.742L428.302 234.83C470.229 276.84 473.585 348.357 428.244 393.727C414.414 407.546 397.842 416.661 380.307 421.656L382.291 424.11L426.494 468.429C442.716 460.249 457.859 449.878 471.076 436.643C536.577 371.057 540.341 261.239 471.076 191.884L330.123 50.7198C262.549 -16.8826 153.253 -16.941 85.7092 50.749C17.99 118.439 18.2234 227.993 85.6508 295.537Z" fill="#6AB0E0"/>
<rect width="442.485" height="758.415" fill="black" fill-opacity="0" transform="translate(285.47 265.585)"/>
<path d="M727.955 478.384C727.955 609.969 609.432 698.956 609.432 802.796H546.473C546.505 737.098 577.953 681.892 608.674 628.581C637.53 578.494 664.743 531.157 664.743 478.384C664.743 380.169 585.159 328.786 506.586 328.786C428.14 328.786 348.682 380.169 348.682 478.384C348.682 531.157 375.895 578.494 404.752 628.581C435.473 681.892 466.889 737.098 466.921 802.796H403.993C403.993 698.956 285.47 609.937 285.47 478.384C285.47 341.142 396.028 265.585 506.586 265.585C617.271 265.585 727.955 341.237 727.955 478.384ZM601.531 850.197C601.531 858.918 594.451 865.997 585.728 865.997H427.698C418.974 865.997 411.894 858.918 411.894 850.197C411.894 841.475 418.974 834.396 427.698 834.396H585.728C594.451 834.396 601.531 841.475 601.531 850.197ZM601.531 913.398C601.531 922.12 594.451 929.198 585.728 929.198H427.698C418.974 929.198 411.894 922.12 411.894 913.398C411.894 904.676 418.974 897.598 427.698 897.598H585.728C594.451 897.598 601.531 904.676 601.531 913.398ZM547.769 1013.22C541.764 1020.05 533.072 1024 524.001 1024H489.424C480.353 1024 471.662 1020.05 465.656 1013.22L419.796 960.799H593.629L547.769 1013.22Z" fill="#F5A71C"/>
<rect width="468.431" height="487.25" fill="black" fill-opacity="0" transform="translate(990 436.604) rotate(90)"/>
<path d="M939.284 609.497L759.267 440.354C760.728 465.099 770.06 488.704 761.792 517.86L896.339 652.501C940.219 696.264 940.16 767.606 896.368 811.428C852.021 855.747 780.709 854.841 737.384 811.428L596.249 670.292L596.191 670.205C554.21 628.194 550.85 556.677 596.249 511.306C610.097 497.488 626.691 488.373 644.249 483.377L642.262 480.923L598.002 436.604C581.759 444.785 566.597 455.156 553.363 468.39C487.777 533.977 484.008 643.795 553.363 713.15L694.497 854.315C762.158 921.918 871.594 921.976 939.226 854.286C1007.03 786.596 1006.8 677.041 939.284 609.497Z" fill="#2CBAAD"/>
</svg>
