<svg width="64" height="64" viewBox="0 0 64 64" fill="none" xmlns="http://www.w3.org/2000/svg">
<rect width="64" height="64" fill="black" fill-opacity="0"/>
<rect width="45.9797" height="42.1041" fill="black" fill-opacity="0" transform="translate(8.15771 16.0199)"/>
<path d="M42.3877 20.7911L50.3058 27.3823V37.1944L31.1476 53.1423L11.9894 37.1925V27.3823L19.9074 20.7911L31.1476 28.276L42.3877 20.7911V20.7911ZM42.6425 16.0199L31.1476 23.6752L19.6526 16.0199L8.15771 25.589V38.9857L31.1476 58.124L54.1374 38.9857V25.589L42.6425 16.0199Z" fill="#F5A71C"/>
<rect width="27.1378" height="28.2174" fill="black" fill-opacity="0" transform="translate(64 36.2372) rotate(90)"/>
<path d="M61.063 46.2535L55.6379 40.8295C55.7225 42.263 53.7629 41.7556 53.2841 43.4447L58.5759 48.7448C61.1171 51.2802 61.1137 55.4133 58.5776 57.952C56.0094 60.5195 51.8796 60.4671 49.3706 57.952L41.1973 49.7756L41.1939 49.7705C38.7627 47.3367 38.5682 43.1934 41.1973 40.565C41.9992 39.7644 42.9602 39.2364 43.977 38.9469L43.8619 38.8048L41.2988 36.2372C40.3581 36.7111 39.4801 37.312 38.7137 38.0787C34.9155 41.8783 34.6972 48.2405 38.7137 52.2584L46.887 60.4366C50.8053 64.3531 57.1429 64.3564 61.0596 60.4349C64.9863 56.5134 64.9728 50.1665 61.063 46.2535Z" fill="#2CBAAD"/>
<rect width="28.1811" height="27.1376" fill="black" fill-opacity="0" transform="translate(28.1812 27.7626) rotate(-180)"/>
<path d="M2.93327 17.7465L7.72553 22.5454C7.64105 21.1119 9.60053 21.6194 10.0787 19.9302L5.41709 15.2551C2.8792 12.7198 2.88258 8.58669 5.4154 6.04795C7.98032 3.48044 12.1048 3.53291 14.6106 6.04795L22.7734 14.2244L22.7768 14.2295C25.2048 16.6633 25.3991 20.8065 22.7734 23.4349C21.9725 24.2355 21.0127 24.7635 19.9973 25.053L20.1122 25.1951L22.672 27.7626C23.6115 27.2887 24.4884 26.6879 25.2538 25.9212C29.0471 22.1216 29.2651 15.7595 25.2538 11.7415L17.091 3.56337C13.1777 -0.353059 6.84824 -0.356445 2.93665 3.56506C-0.985077 7.48657 -0.97156 13.8334 2.93327 17.7465Z" fill="#6AB0E0"/>
</svg>
