<svg width="512" height="512" viewBox="0 0 512 512" fill="none" xmlns="http://www.w3.org/2000/svg">
<rect width="512" height="512" fill="black" fill-opacity="0"/>
<rect width="132.741" height="121.698" fill="black" fill-opacity="0" transform="translate(189.63 203.264)"/>
<path d="M256 221.232C238.589 191.35 189.63 200.073 189.63 237.517C189.63 263.301 220.442 289.665 256 324.962C291.563 289.665 322.37 263.301 322.37 237.517C322.37 199.946 273.284 191.571 256 221.232Z" fill="#F5A71C"/>
<rect width="512" height="430" fill="black" fill-opacity="0" transform="translate(0 41)"/>
<path d="M319.027 74.0606L286.068 107.005C302.225 106.053 309.511 115.118 328.549 120.508L347.107 102.055C375.682 73.4512 422.265 73.4892 450.879 102.036C479.817 130.945 479.225 177.432 450.879 205.674L331.634 324.72L331.577 324.758C304.146 352.125 208.672 353.172 179.047 323.578C182.309 335.023 175.203 310.088 179.047 323.578C184.388 334.166 191.16 344.05 199.802 352.677C242.627 395.431 314.332 397.888 359.618 352.677L478.882 233.631C523.023 189.525 523.062 118.186 478.863 74.0987C434.665 29.8973 363.131 30.0497 319.027 74.0606Z" fill="#6AB0E0"/>
<path d="M226.559 404.362L192.913 437.935C148.734 482.022 77.2567 482.022 33.0964 437.935C11.7316 416.643 0 388.306 0 358.178C0 328.05 11.7316 299.713 33.0773 278.402L152.99 158.709C197.913 113.86 269.619 115.631 312.787 158.709C321.429 167.336 328.239 177.239 333.561 187.789C336.994 199.463 330.127 176.115 333.561 187.789C305.939 160.213 209.816 157.89 181.031 186.627L181.012 186.665L61.0805 306.359C32.4669 334.906 32.4669 381.412 61.0805 409.959C90.0184 438.849 136.582 438.297 164.891 409.959L184.059 390.84C203.002 396.249 210.097 405.333 226.559 404.362Z" fill="#2CBAAD"/>
</svg>
