<svg width="64" height="64" viewBox="0 0 64 64" fill="none" xmlns="http://www.w3.org/2000/svg">
<rect width="64" height="64" fill="black" fill-opacity="0"/>
<rect width="16.5926" height="15.2123" fill="black" fill-opacity="0" transform="translate(23.7036 25.408)"/>
<path d="M31.9999 27.654C29.8235 23.9187 23.7036 25.0092 23.7036 29.6897C23.7036 32.9126 27.5552 36.2081 31.9999 40.6203C36.4453 36.2081 40.2962 32.9126 40.2962 29.6897C40.2962 24.9933 34.1604 23.9464 31.9999 27.654Z" fill="#F5A71C"/>
<rect width="64" height="53.75" fill="black" fill-opacity="0" transform="translate(0 5.125)"/>
<path d="M39.8785 9.25757L35.7585 13.3756C37.7782 13.2566 38.6889 14.3898 41.0686 15.0635L43.3884 12.7569C46.9604 9.18139 52.7832 9.18615 56.3599 12.7545C59.9772 16.3682 59.9032 22.179 56.3599 25.7093L41.4543 40.59L41.4472 40.5948C38.0183 44.0156 26.084 44.1465 22.381 40.4472C22.7887 41.8779 21.9004 38.761 22.381 40.4472C23.0486 41.7708 23.8951 43.0063 24.9753 44.0846C30.3284 49.4289 39.2916 49.736 44.9523 44.0846L59.8603 29.2039C65.378 23.6906 65.3828 14.7732 59.8579 9.26233C54.3331 3.73716 45.3914 3.75621 39.8785 9.25757Z" fill="#6AB0E0"/>
<path d="M28.3199 50.5452L24.1141 54.7418C18.5917 60.2527 9.65709 60.2527 4.13705 54.7418C1.46645 52.0804 0 48.5382 0 44.7722C0 41.0063 1.46645 37.4641 4.13467 34.8003L19.1237 19.8386C24.7391 14.2325 33.7024 14.4539 39.0984 19.8386C40.1786 20.917 41.0298 22.1548 41.6951 23.4736C42.1243 24.9329 41.2659 22.0144 41.6951 23.4736C38.2424 20.0267 26.2271 19.7362 22.6289 23.3284L22.6265 23.3332L7.63506 38.2949C4.05836 41.8633 4.05836 47.6765 7.63506 51.2449C11.2523 54.8561 17.0728 54.7871 20.6113 51.2449L23.0074 48.855C25.3752 49.5311 26.2621 50.6666 28.3199 50.5452Z" fill="#2CBAAD"/>
</svg>
