<svg width="1024" height="1024" viewBox="0 0 1024 1024" fill="none" xmlns="http://www.w3.org/2000/svg">
<rect width="1024" height="1024" fill="black" fill-opacity="0"/>
<rect width="735.675" height="673.665" fill="black" fill-opacity="0" transform="translate(130.523 256.318)"/>
<path d="M678.203 332.656L804.892 438.116V595.11L498.361 850.276L191.829 595.08V438.116L318.519 332.656L498.361 452.416L678.203 332.656ZM682.279 256.318L498.361 378.803L314.442 256.318L130.523 409.424V623.772L498.361 929.983L866.198 623.772V409.424L682.279 256.318Z" fill="#F5A71C"/>
<rect width="434.204" height="451.478" fill="black" fill-opacity="0" transform="translate(1024 579.796) rotate(90)"/>
<path d="M977.007 740.055L890.207 653.271C891.56 676.208 860.207 668.089 852.546 695.115L937.215 779.917C977.873 820.483 977.819 886.612 937.242 927.232C896.151 968.313 830.074 967.473 789.93 927.232L659.157 796.409L659.103 796.328C620.204 757.387 617.091 691.095 659.157 649.039C671.988 636.231 687.363 627.782 703.632 623.151L701.791 620.876L660.781 579.796C645.73 587.378 631.681 596.992 619.419 609.259C558.647 670.054 555.155 771.847 619.419 836.135L750.192 966.986C812.885 1029.65 914.287 1029.7 976.953 966.959C1039.78 904.214 1039.56 802.664 977.007 740.055Z" fill="#2CBAAD"/>
<rect width="450.898" height="434.202" fill="black" fill-opacity="0" transform="translate(450.898 444.202) rotate(-180)"/>
<path d="M46.9323 283.944L123.609 360.727C122.257 337.79 153.609 345.91 161.259 318.884L86.6734 244.082C46.0672 203.516 46.1213 137.387 86.6463 96.7674C127.685 55.6872 193.677 56.5267 233.769 96.7674L364.374 227.59L364.428 227.671C403.277 266.612 406.386 332.904 364.374 374.959C351.56 387.768 336.204 396.217 319.956 400.847L321.794 403.122L362.752 444.202C377.783 436.62 391.814 427.007 404.061 414.739C464.754 353.945 468.242 252.152 404.061 187.864L273.456 57.014C210.844 -5.64882 109.572 -5.70299 46.9864 57.0411C-15.7612 119.785 -15.545 221.335 46.9323 283.944Z" fill="#6AB0E0"/>
</svg>
