<svg width="512" height="512" viewBox="0 0 512 512" fill="none" xmlns="http://www.w3.org/2000/svg">
<rect width="512" height="512" fill="black" fill-opacity="0"/>
<rect width="512" height="430" fill="black" fill-opacity="0" transform="translate(0 41)"/>
<path d="M319.027 74.0606L286.068 107.005C302.225 106.053 309.511 115.118 328.549 120.508L347.107 102.055C375.682 73.4512 422.265 73.4892 450.879 102.036C479.817 130.945 479.225 177.432 450.879 205.674L331.634 324.72L331.577 324.758C304.146 352.125 208.672 353.172 179.047 323.578C182.309 335.023 175.203 310.088 179.047 323.578C184.388 334.166 191.16 344.05 199.802 352.677C242.627 395.431 314.332 397.888 359.618 352.677L478.882 233.631C523.023 189.525 523.062 118.186 478.863 74.0987C434.665 29.8973 363.131 30.0497 319.027 74.0606Z" fill="#6AB0E0"/>
<path d="M319.027 74.0606L286.068 107.005C302.225 106.053 309.511 115.118 328.549 120.508L347.107 102.055C375.682 73.4512 422.265 73.4892 450.879 102.036C479.817 130.945 479.225 177.432 450.879 205.674L331.634 324.72L331.577 324.758C304.146 352.125 208.672 353.172 179.047 323.578C182.309 335.023 175.203 310.088 179.047 323.578C184.388 334.166 191.16 344.05 199.802 352.677C242.627 395.431 314.332 397.888 359.618 352.677L478.882 233.631C523.023 189.525 523.062 118.186 478.863 74.0987C434.665 29.8973 363.131 30.0497 319.027 74.0606Z" fill="#6AB0E0"/>
<path d="M226.559 404.361L192.913 437.934C148.734 482.021 77.2567 482.021 33.0964 437.934C11.7316 416.643 0 388.305 0 358.177C0 328.05 11.7316 299.712 33.0773 278.402L152.99 158.708C197.913 113.859 269.619 115.63 312.787 158.708C321.429 167.335 328.239 177.238 333.561 187.789C336.994 199.463 330.127 176.115 333.561 187.789C305.939 160.213 209.816 157.889 181.031 186.627L181.012 186.665L61.0805 306.359C32.4669 334.906 32.4669 381.411 61.0805 409.958C90.0184 438.848 136.582 438.296 164.891 409.958L184.059 390.84C203.002 396.248 210.097 405.332 226.559 404.361Z" fill="#2CBAAD"/>
<path d="M226.559 404.361L192.913 437.934C148.734 482.021 77.2567 482.021 33.0964 437.934C11.7316 416.643 0 388.305 0 358.177C0 328.05 11.7316 299.712 33.0773 278.402L152.99 158.708C197.913 113.859 269.619 115.63 312.787 158.708C321.429 167.335 328.239 177.238 333.561 187.789C336.994 199.463 330.127 176.115 333.561 187.789C305.939 160.213 209.816 157.889 181.031 186.627L181.012 186.665L61.0805 306.359C32.4669 334.906 32.4669 381.411 61.0805 409.958C90.0184 438.848 136.582 438.296 164.891 409.958L184.059 390.84C203.002 396.248 210.097 405.332 226.559 404.361Z" fill="#2CBAAD"/>
<rect width="84.5" height="144.5" fill="black" fill-opacity="0" transform="translate(214 185.5)"/>
<path d="M298.5 226.044C298.5 251.115 275.866 268.07 275.866 287.854H263.843C263.849 275.337 269.854 264.818 275.721 254.661C281.232 245.118 286.429 236.099 286.429 226.044C286.429 207.332 271.231 197.542 256.226 197.542C241.245 197.542 226.071 207.332 226.071 226.044C226.071 236.099 231.268 245.118 236.779 254.661C242.646 264.818 248.645 275.337 248.651 287.854H236.634C236.634 268.07 214 251.109 214 226.044C214 199.896 235.113 185.5 256.226 185.5C277.363 185.5 298.5 199.914 298.5 226.044ZM274.357 296.885C274.357 298.547 273.005 299.896 271.339 299.896H241.161C239.495 299.896 238.143 298.547 238.143 296.885C238.143 295.224 239.495 293.875 241.161 293.875H271.339C273.005 293.875 274.357 295.224 274.357 296.885ZM274.357 308.927C274.357 310.589 273.005 311.938 271.339 311.938H241.161C239.495 311.938 238.143 310.589 238.143 308.927C238.143 307.265 239.495 305.917 241.161 305.917H271.339C273.005 305.917 274.357 307.265 274.357 308.927ZM264.09 327.947C262.944 329.247 261.284 330 259.552 330H252.948C251.216 330 249.556 329.247 248.41 327.947L239.652 317.958H272.848L264.09 327.947V327.947ZM242.187 229.524L235.016 228.603C236.58 216.592 244.07 207.693 256.25 205.441L257.572 212.528C245.82 214.701 242.887 224.112 242.187 229.524Z" fill="#F5A71C"/>
</svg>
