<svg width="512" height="512" viewBox="0 0 512 512" fill="none" xmlns="http://www.w3.org/2000/svg">
<rect width="512" height="512" fill="black" fill-opacity="0"/>
<rect width="367.838" height="336.832" fill="black" fill-opacity="0" transform="translate(65.2617 128.159)"/>
<path d="M339.102 166.328L402.446 219.058V297.555L249.181 425.138L95.9149 297.54V219.058L159.26 166.328L249.181 226.208L339.102 166.328V166.328ZM341.14 128.159L249.181 189.401L157.221 128.159L65.2617 204.712V311.886L249.181 464.992L433.099 311.886V204.712L341.14 128.159Z" fill="#F5A71C"/>
<rect width="217.102" height="225.739" fill="black" fill-opacity="0" transform="translate(512 289.898) rotate(90)"/>
<path d="M488.504 370.028L445.103 326.636C445.78 338.104 430.103 334.044 426.273 347.557L468.608 389.959C488.937 410.241 488.91 443.306 468.621 463.616C448.075 484.156 415.037 483.737 394.965 463.616L329.578 398.204L329.551 398.164C310.102 378.693 308.545 345.547 329.578 324.52C335.994 318.115 343.682 313.891 351.816 311.576L350.896 310.438L330.39 289.898C322.865 293.689 315.841 298.496 309.709 304.629C279.324 335.027 277.578 385.924 309.709 418.068L375.096 483.493C406.442 514.824 457.144 514.852 488.477 483.479C519.891 452.107 519.782 401.332 488.504 370.028Z" fill="#2CBAAD"/>
<rect width="225.449" height="217.101" fill="black" fill-opacity="0" transform="translate(225.449 222.101) rotate(-180)"/>
<path d="M23.4659 141.972L61.804 180.364C61.1281 168.895 76.804 172.955 80.6294 159.442L43.3364 122.041C23.0334 101.758 23.0604 68.6936 43.3229 48.3837C63.8423 27.8436 96.8382 28.2633 116.884 48.3837L182.187 113.795L182.214 113.836C201.638 133.306 203.193 166.452 182.187 187.48C175.78 193.884 168.102 198.108 159.978 200.424L160.897 201.561L181.376 222.101C188.891 218.31 195.907 213.503 202.03 207.37C232.377 176.973 234.121 126.076 202.03 93.932L136.728 28.507C105.422 -2.82441 54.7857 -2.8515 23.4929 28.5206C-7.88086 59.8926 -7.77272 110.667 23.4659 141.972Z" fill="#6AB0E0"/>
</svg>
