<svg width="1024" height="1024" viewBox="0 0 1024 1024" fill="none" xmlns="http://www.w3.org/2000/svg">
<rect width="1024" height="1024" fill="black" fill-opacity="0"/>
<rect width="265.481" height="243.396" fill="black" fill-opacity="0" transform="translate(379.259 406.528)"/>
<path d="M512 442.464C477.178 382.7 379.259 400.147 379.259 475.035C379.259 526.601 440.884 579.329 512 649.925C583.127 579.329 644.741 526.601 644.741 475.035C644.741 399.892 546.568 383.142 512 442.464Z" fill="#F5A71C"/>
<rect width="1024" height="860" fill="black" fill-opacity="0" transform="translate(0 82)"/>
<path d="M638.055 148.121L572.135 214.01C604.45 212.106 619.022 230.236 657.097 241.015L694.214 204.111C751.365 146.902 844.531 146.978 901.758 204.073C959.634 261.891 958.451 354.864 901.758 411.349L663.268 649.441L663.154 649.517C608.292 704.25 417.344 706.345 358.095 647.155C364.618 670.046 350.405 620.176 358.095 647.155C368.777 668.332 382.321 688.1 399.603 705.354C485.253 790.862 628.665 795.776 719.236 705.354L957.764 467.262C1046.05 379.05 1046.12 236.371 957.726 148.197C869.329 59.7946 726.261 60.0993 638.055 148.121Z" fill="#6AB0E0"/>
<path d="M453.119 808.723L385.826 875.869C297.467 964.043 154.513 964.043 66.1928 875.869C23.4632 833.287 0 776.611 0 716.356C0 656.1 23.4632 599.425 66.1547 556.805L305.98 317.417C395.826 227.72 539.238 231.262 625.575 317.417C642.857 334.671 656.477 354.477 667.122 375.578C673.989 398.926 660.254 352.23 667.122 375.578C611.878 320.426 419.633 315.78 362.062 373.255L362.024 373.331L122.161 612.718C64.9338 669.812 64.9338 762.824 122.161 819.918C180.037 877.698 273.165 876.593 329.781 819.918L368.119 781.68C406.003 792.497 420.194 810.666 453.119 808.723Z" fill="#2CBAAD"/>
</svg>
