<svg width="512" height="512" viewBox="0 0 512 512" fill="none" xmlns="http://www.w3.org/2000/svg">
<rect width="512" height="512.001" fill="black" fill-opacity="0"/>
<rect width="243.312" height="234.215" fill="black" fill-opacity="0" transform="translate(260.812 234.215) rotate(-180)"/>
<path d="M42.8254 147.769L127.37 232.34C126.641 219.968 127.37 208.165 131.499 193.587L64.2703 126.267C42.3586 104.386 42.3878 68.7147 64.2557 46.8038C86.4009 24.6446 122.011 25.0975 143.646 46.8038L214.122 117.371L214.151 117.415C235.115 138.42 236.792 174.179 214.122 196.864C207.207 203.773 198.921 208.331 190.153 210.829L191.145 212.056L213.247 234.215C221.358 230.125 228.929 224.939 235.538 218.322C268.289 185.529 270.171 130.62 235.538 95.9426L165.061 25.3604C131.275 -8.44081 76.6267 -8.47003 42.8546 25.375C8.99499 59.22 9.1117 113.997 42.8254 147.769Z" fill="#6AB0E0"/>
<rect width="221.242" height="379.208" fill="black" fill-opacity="0" transform="translate(142.735 132.793)"/>
<path d="M363.978 239.192C363.978 304.985 304.716 349.478 304.716 401.398H273.237C273.253 368.549 288.977 340.946 304.337 314.291C318.765 289.248 332.372 265.579 332.372 239.192C332.372 190.085 292.58 164.394 253.293 164.394C214.07 164.394 174.341 190.085 174.341 239.192C174.341 265.579 187.948 289.248 202.376 314.291C217.737 340.946 233.445 368.549 233.461 401.398H201.997C201.997 349.478 142.735 304.969 142.735 239.192C142.735 170.572 198.014 132.793 253.293 132.793C308.636 132.793 363.978 170.619 363.978 239.192ZM300.766 425.099C300.766 429.46 297.226 432.999 292.864 432.999H213.849C209.487 432.999 205.947 429.46 205.947 425.099C205.947 420.738 209.487 417.199 213.849 417.199H292.864C297.226 417.199 300.766 420.738 300.766 425.099ZM300.766 456.699C300.766 461.06 297.226 464.6 292.864 464.6H213.849C209.487 464.6 205.947 461.06 205.947 456.699C205.947 452.339 209.487 448.799 213.849 448.799H292.864C297.226 448.799 300.766 452.339 300.766 456.699ZM273.885 506.613C270.882 510.025 266.536 512.001 262.001 512.001H244.712C240.177 512.001 235.831 510.025 232.828 506.613L209.898 480.4H296.815L273.885 506.613Z" fill="#F5A71C"/>
<rect width="234.215" height="243.625" fill="black" fill-opacity="0" transform="translate(495 218.303) rotate(90)"/>
<path d="M469.642 304.749L379.634 220.177C380.364 232.55 385.03 244.353 380.896 258.931L448.169 326.251C470.109 348.133 470.08 383.804 448.184 405.715C426.01 427.874 390.354 427.421 368.692 405.715L298.125 335.147L298.096 335.103C277.105 314.097 275.425 278.339 298.125 255.654C305.049 248.744 313.345 244.187 322.124 241.689L321.131 240.462L299.001 218.303C290.88 222.393 283.298 227.578 276.681 234.195C243.888 266.989 242.004 321.898 276.681 356.576L347.249 427.158C381.079 460.959 435.797 460.989 469.613 427.143C503.516 393.298 503.399 338.521 469.642 304.749Z" fill="#2CBAAD"/>
</svg>
