<svg width="1024" height="1024" viewBox="0 0 1024 1024" fill="none" xmlns="http://www.w3.org/2000/svg">
<rect width="1024" height="1024" fill="black" fill-opacity="0"/>
<rect width="1024" height="860" fill="black" fill-opacity="0" transform="translate(0 82)"/>
<path d="M638.055 148.121L572.135 214.01C604.45 212.106 619.022 230.236 657.097 241.015L694.214 204.111C751.365 146.902 844.531 146.978 901.758 204.073C959.634 261.891 958.451 354.864 901.758 411.349L663.268 649.441L663.154 649.517C608.292 704.25 417.344 706.345 358.095 647.155C364.618 670.046 350.405 620.176 358.095 647.155C368.777 668.332 382.321 688.1 399.603 705.354C485.253 790.862 628.665 795.776 719.236 705.354L957.764 467.262C1046.05 379.05 1046.12 236.371 957.726 148.197C869.329 59.7946 726.261 60.0993 638.055 148.121Z" fill="#6AB0E0"/>
<path d="M638.055 148.121L572.135 214.01C604.45 212.106 619.022 230.236 657.097 241.015L694.214 204.111C751.365 146.902 844.531 146.978 901.758 204.073C959.634 261.891 958.451 354.864 901.758 411.349L663.268 649.441L663.154 649.517C608.292 704.25 417.344 706.345 358.095 647.155C364.618 670.046 350.405 620.176 358.095 647.155C368.777 668.332 382.321 688.1 399.603 705.354C485.253 790.862 628.665 795.776 719.236 705.354L957.764 467.262C1046.05 379.05 1046.12 236.371 957.726 148.197C869.329 59.7946 726.261 60.0993 638.055 148.121Z" fill="#6AB0E0"/>
<path d="M453.119 808.723L385.826 875.869C297.467 964.043 154.513 964.043 66.1928 875.869C23.4632 833.287 0 776.611 0 716.356C0 656.1 23.4632 599.425 66.1547 556.805L305.98 317.417C395.826 227.72 539.238 231.262 625.575 317.417C642.857 334.671 656.477 354.477 667.122 375.578C673.989 398.926 660.254 352.23 667.122 375.578C611.878 320.426 419.633 315.78 362.062 373.255L362.024 373.331L122.161 612.718C64.9338 669.812 64.9338 762.824 122.161 819.918C180.037 877.698 273.165 876.593 329.781 819.918L368.119 781.68C406.003 792.497 420.194 810.666 453.119 808.723Z" fill="#2CBAAD"/>
<path d="M453.119 808.723L385.826 875.869C297.467 964.043 154.513 964.043 66.1928 875.869C23.4632 833.287 0 776.611 0 716.356C0 656.1 23.4632 599.425 66.1547 556.805L305.98 317.417C395.826 227.72 539.238 231.262 625.575 317.417C642.857 334.671 656.477 354.477 667.122 375.578C673.989 398.926 660.254 352.23 667.122 375.578C611.878 320.426 419.633 315.78 362.062 373.255L362.024 373.331L122.161 612.718C64.9338 669.812 64.9338 762.824 122.161 819.918C180.037 877.698 273.165 876.593 329.781 819.918L368.119 781.68C406.003 792.497 420.194 810.666 453.119 808.723Z" fill="#2CBAAD"/>
<rect width="169" height="289" fill="black" fill-opacity="0" transform="translate(428 371)"/>
<path d="M597 452.089C597 502.23 551.732 536.139 551.732 575.708H527.686C527.698 550.674 539.709 529.637 551.442 509.323C562.464 490.237 572.857 472.198 572.857 452.089C572.857 414.663 542.461 395.083 512.452 395.083C482.49 395.083 452.143 414.663 452.143 452.089C452.143 472.198 462.536 490.237 473.558 509.323C485.291 529.637 497.29 550.674 497.302 575.708H473.268C473.268 536.139 428 502.218 428 452.089C428 399.792 470.226 371 512.452 371C554.726 371 597 399.828 597 452.089ZM548.714 593.771C548.714 597.094 546.01 599.792 542.679 599.792H482.321C478.99 599.792 476.286 597.094 476.286 593.771C476.286 590.447 478.99 587.75 482.321 587.75H542.679C546.01 587.75 548.714 590.447 548.714 593.771ZM548.714 617.854C548.714 621.178 546.01 623.875 542.679 623.875H482.321C478.99 623.875 476.286 621.178 476.286 617.854C476.286 614.531 478.99 611.833 482.321 611.833H542.679C546.01 611.833 548.714 614.531 548.714 617.854ZM528.181 655.894C525.887 658.495 522.568 660 519.103 660H505.897C502.432 660 499.113 658.495 496.819 655.894L479.304 635.917H545.696L528.181 655.894V655.894ZM484.374 459.049L470.033 457.206C473.159 433.183 488.14 415.386 512.5 410.882L515.144 425.055C491.641 429.402 485.774 448.223 484.374 459.049Z" fill="#F5A71C"/>
</svg>
