<svg width="64" height="64" viewBox="0 0 64 64" fill="none" xmlns="http://www.w3.org/2000/svg">
<rect width="64" height="64" fill="black" fill-opacity="0"/>
<rect width="30.4139" height="29.2768" fill="black" fill-opacity="0" transform="translate(32.6016 29.2773) rotate(-180)"/>
<path d="M5.35318 18.4716L15.9213 29.043C15.8301 27.4965 15.9213 26.0211 16.4374 24.1989L8.03379 15.7839C5.29482 13.0487 5.29847 8.58985 8.03197 5.851C10.8001 3.0811 15.2514 3.13771 17.9557 5.851L26.7653 14.6719L26.7689 14.6774C29.3893 17.3031 29.599 21.7729 26.7653 24.6085C25.9009 25.4722 24.8651 26.0418 23.7692 26.3541L23.8932 26.5074L26.6558 29.2773C27.6697 28.7661 28.6162 28.1179 29.4422 27.2908C33.5361 23.1916 33.7713 16.328 29.4422 11.9933L20.6327 3.17057C16.4093 -1.05457 9.57833 -1.05823 5.35682 3.17239C1.12437 7.40301 1.13896 14.2502 5.35318 18.4716Z" fill="#6AB0E0"/>
<rect width="27.6553" height="47.4009" fill="black" fill-opacity="0" transform="translate(17.8418 16.5986)"/>
<path d="M45.4971 29.8985C45.4971 38.1226 38.0894 43.6843 38.0894 50.1743H34.1545C34.1565 46.0682 36.122 42.6178 38.042 39.2859C39.8455 36.1554 41.5463 33.1968 41.5463 29.8985C41.5463 23.7601 36.5723 20.5487 31.6616 20.5487C26.7587 20.5487 21.7926 23.7601 21.7926 29.8985C21.7926 33.1968 23.4934 36.1554 25.2969 39.2859C27.2169 42.6178 29.1805 46.0682 29.1824 50.1743H25.2495C25.2495 43.6843 17.8418 38.1206 17.8418 29.8985C17.8418 21.3209 24.7517 16.5986 31.6616 16.5986C38.5793 16.5986 45.4971 21.3269 45.4971 29.8985ZM37.5956 53.1368C37.5956 53.6819 37.1531 54.1243 36.6079 54.1243H26.731C26.1858 54.1243 25.7433 53.6819 25.7433 53.1368C25.7433 52.5917 26.1858 52.1493 26.731 52.1493H36.6079C37.1531 52.1493 37.5956 52.5917 37.5956 53.1368ZM37.5956 57.0869C37.5956 57.632 37.1531 58.0744 36.6079 58.0744H26.731C26.1858 58.0744 25.7433 57.632 25.7433 57.0869C25.7433 56.5418 26.1858 56.0994 26.731 56.0994H36.6079C37.1531 56.0994 37.5956 56.5418 37.5956 57.0869ZM34.2355 63.326C33.8601 63.7526 33.3169 63.9995 32.75 63.9995H30.5889C30.022 63.9995 29.4788 63.7526 29.1034 63.326L26.2372 60.0494H37.1017L34.2355 63.326Z" fill="#F5A71C"/>
<rect width="29.2769" height="30.4531" fill="black" fill-opacity="0" transform="translate(61.875 27.2871) rotate(90)"/>
<path d="M58.7052 38.0929L47.4542 27.5215C47.5455 29.068 48.1287 30.5433 47.612 32.3656L56.0212 40.7806C58.7637 43.5158 58.76 47.9747 56.023 50.7136C53.2513 53.4835 48.7943 53.4269 46.0865 50.7136L37.2656 41.8926L37.2619 41.8871C34.6381 39.2614 34.4282 34.7916 37.2656 31.956C38.1311 31.0923 39.1682 30.5226 40.2655 30.2104L40.1414 30.057L37.3751 27.2871C36.3599 27.7984 35.4123 28.4466 34.5852 29.2737C30.486 33.3729 30.2505 40.2365 34.5852 44.5712L43.4061 53.394C47.6348 57.6192 54.4746 57.6228 58.7016 53.3922C62.9395 49.1615 62.9249 42.3144 58.7052 38.0929Z" fill="#2CBAAD"/>
</svg>
