<svg width="64" height="64" viewBox="0 0 64 64" fill="none" xmlns="http://www.w3.org/2000/svg">
<rect width="64" height="64" fill="black" fill-opacity="0"/>
<rect width="64" height="53.75" fill="black" fill-opacity="0" transform="translate(0 5.125)"/>
<path d="M39.8782 9.25757L35.7583 13.3756C37.7779 13.2566 38.6887 14.3898 41.0684 15.0635L43.3882 12.7569C46.9601 9.18139 52.783 9.18615 56.3597 12.7545C59.9769 16.3682 59.903 22.179 56.3597 25.7093L41.4541 40.59L41.4469 40.5948C38.0181 44.0156 26.0838 44.1465 22.3807 40.4472C22.7885 41.8779 21.9002 38.761 22.3807 40.4472C23.0484 41.7708 23.8949 43.0063 24.975 44.0846C30.3282 49.4289 39.2914 49.736 44.9521 44.0846L59.8601 29.2039C65.3777 23.6906 65.3825 14.7732 59.8577 9.26233C54.3329 3.73716 45.3911 3.75621 39.8782 9.25757Z" fill="#6AB0E0"/>
<path d="M39.8782 9.25757L35.7583 13.3756C37.7779 13.2566 38.6887 14.3898 41.0684 15.0635L43.3882 12.7569C46.9601 9.18139 52.783 9.18615 56.3597 12.7545C59.9769 16.3682 59.903 22.179 56.3597 25.7093L41.4541 40.59L41.4469 40.5948C38.0181 44.0156 26.0838 44.1465 22.3807 40.4472C22.7885 41.8779 21.9002 38.761 22.3807 40.4472C23.0484 41.7708 23.8949 43.0063 24.975 44.0846C30.3282 49.4289 39.2914 49.736 44.9521 44.0846L59.8601 29.2039C65.3777 23.6906 65.3825 14.7732 59.8577 9.26233C54.3329 3.73716 45.3911 3.75621 39.8782 9.25757Z" fill="#6AB0E0"/>
<path d="M28.3199 50.5454L24.1141 54.742C18.5917 60.2529 9.65709 60.2529 4.13705 54.742C1.46645 52.0806 0 48.5384 0 44.7724C0 41.0065 1.46645 37.4643 4.13467 34.8005L19.1237 19.8388C24.7391 14.2327 33.7024 14.4541 39.0984 19.8388C40.1786 20.9171 41.0298 22.155 41.6951 23.4738C42.1243 24.9331 41.2659 22.0146 41.6951 23.4738C38.2424 20.0268 26.2271 19.7364 22.6289 23.3286L22.6265 23.3334L7.63506 38.2951C4.05836 41.8634 4.05836 47.6767 7.63506 51.245C11.2523 54.8563 17.0728 54.7872 20.6113 51.245L23.0074 48.8552C25.3752 49.5313 26.2621 50.6668 28.3199 50.5454Z" fill="#2CBAAD"/>
<path d="M28.3199 50.5454L24.1141 54.742C18.5917 60.2529 9.65709 60.2529 4.13705 54.742C1.46645 52.0806 0 48.5384 0 44.7724C0 41.0065 1.46645 37.4643 4.13467 34.8005L19.1237 19.8388C24.7391 14.2327 33.7024 14.4541 39.0984 19.8388C40.1786 20.9171 41.0298 22.155 41.6951 23.4738C42.1243 24.9331 41.2659 22.0146 41.6951 23.4738C38.2424 20.0268 26.2271 19.7364 22.6289 23.3286L22.6265 23.3334L7.63506 38.2951C4.05836 41.8634 4.05836 47.6767 7.63506 51.245C11.2523 54.8563 17.0728 54.7872 20.6113 51.245L23.0074 48.8552C25.3752 49.5313 26.2621 50.6668 28.3199 50.5454Z" fill="#2CBAAD"/>
<rect width="10.5625" height="18.0625" fill="black" fill-opacity="0" transform="translate(26.75 23.1875)"/>
<path d="M37.3125 28.2555C37.3125 31.3894 34.4833 33.5087 34.4833 35.9818H32.9804C32.9811 34.4171 33.7318 33.1023 34.4652 31.8327C35.154 30.6398 35.8036 29.5124 35.8036 28.2555C35.8036 25.9164 33.9038 24.6927 32.0282 24.6927C30.1557 24.6927 28.2589 25.9164 28.2589 28.2555C28.2589 29.5124 28.9085 30.6398 29.5973 31.8327C30.3307 33.1023 31.0806 34.4171 31.0814 35.9818H29.5792C29.5792 33.5087 26.75 31.3886 26.75 28.2555C26.75 24.987 29.3891 23.1875 32.0282 23.1875C34.6704 23.1875 37.3125 24.9892 37.3125 28.2555ZM34.2946 37.1107C34.2946 37.3184 34.1256 37.487 33.9174 37.487H30.1451C29.9369 37.487 29.7679 37.3184 29.7679 37.1107C29.7679 36.903 29.9369 36.7344 30.1451 36.7344H33.9174C34.1256 36.7344 34.2946 36.903 34.2946 37.1107ZM34.2946 38.6159C34.2946 38.8236 34.1256 38.9922 33.9174 38.9922H30.1451C29.9369 38.9922 29.7679 38.8236 29.7679 38.6159C29.7679 38.4082 29.9369 38.2396 30.1451 38.2396H33.9174C34.1256 38.2396 34.2946 38.4082 34.2946 38.6159ZM33.0113 40.9934C32.868 41.1559 32.6605 41.25 32.4439 41.25H31.6186C31.402 41.25 31.1945 41.1559 31.0512 40.9934L29.9565 39.7448H34.106L33.0113 40.9934V40.9934ZM30.2733 28.6905L29.377 28.5754C29.5725 27.0739 30.5087 25.9616 32.0312 25.6801L32.1965 26.5659C30.7275 26.8376 30.3609 28.014 30.2733 28.6905Z" fill="#F5A71C"/>
</svg>
